<svg width="67" height="66" viewBox="0 0 67 66" fill="none" xmlns="http://www.w3.org/2000/svg">
<g id="icon">
<path id="Vector" d="M33.0996 0C14.8771 0 0.0996094 14.7775 0.0996094 33C0.0996094 51.2225 14.8771 66 33.0996 66C51.3221 66 66.0996 51.2225 66.0996 33C66.0996 14.7775 51.3221 0 33.0996 0Z" fill="#263640"/>
<g id="customer-svgrepo-com 1">
<g id="Group 57">
<path id="Vector_2" d="M39.6218 34.0295V30.1162H26.6157V34.0295C26.6157 34.7002 26.1544 35.2826 25.5016 35.4361L16.5605 37.5399C15.2549 37.8473 14.332 39.0122 14.332 40.3535V46.2836C14.332 47.5805 15.3833 48.6319 16.6803 48.6319H49.5569C50.8539 48.6319 51.9052 47.5805 51.9052 46.2836V40.3535C51.9052 39.0124 50.9825 37.8473 49.6769 37.5401L40.7358 35.4362C40.0831 35.2826 39.6218 34.7002 39.6218 34.0295Z" fill="#E6AF78"/>
<path id="Vector_3" d="M49.6769 37.5393L42.1881 35.7773C41.1224 39.7951 37.4717 42.7604 33.1186 42.7604C28.7656 42.7604 25.1148 39.7951 24.0493 35.7773L16.5605 37.5393C15.2549 37.8467 14.332 39.0116 14.332 40.3528V46.2829C14.332 47.5798 15.3835 48.6312 16.6803 48.6312H49.5569C50.8538 48.6312 51.9052 47.5798 51.9052 46.2829V40.3528C51.9052 39.0115 50.9824 37.8466 49.6769 37.5393Z" fill="#FFD782"/>
<path id="Vector_4" d="M26.6153 34.0297C26.6153 34.5147 26.3718 34.951 25.9912 35.2149C34.5635 39.5096 39.6215 31.0172 39.6215 31.0172V30.1162H26.6154V34.0295H26.6153V34.0297Z" fill="#D29B6E"/>
<path id="Vector_5" d="M23.7251 13.1357L24.3548 26.9883C24.4136 28.2824 25.0482 29.4825 26.0844 30.2597L29.0721 32.5004C29.8226 33.0633 30.7353 33.3675 31.6733 33.3675H34.5635C35.5015 33.3675 36.4142 33.0633 37.1646 32.5004L40.1523 30.2597C41.1886 29.4824 41.8232 28.2824 41.882 26.9883L42.5117 13.1357H23.7251Z" fill="#F0C087"/>
<path id="Vector_6" d="M23.7251 13.1359L24.3548 26.9884C24.4136 28.2826 25.0482 29.4826 26.0844 30.26L29.0721 32.5007C29.8226 33.0636 30.7353 33.3678 31.6733 33.3678H33.1183C30.9506 32.6452 29.5056 26.8646 29.5056 26.8646L29.5846 19.8124C29.5911 19.2308 30.0226 18.7464 30.598 18.6623C34.4117 18.1062 39.2801 17.0082 42.5118 13.8102V13.1357L23.7251 13.1359Z" fill="#E6AF78"/>
<path id="Vector_7" d="M22.2803 12.4132V13.1357L23.0028 21.0839H24.448L25.8931 16.7485C25.8931 16.7485 35.2865 16.7485 40.3445 13.8583L41.7896 21.084H43.2348L43.9573 13.1358V12.4133C43.9571 8.42246 40.7221 5.1875 36.7315 5.1875H29.5058C25.5152 5.1875 22.2803 8.42246 22.2803 12.4132Z" fill="#5A4146"/>
<path id="Vector_8" d="M43.9113 22.2198L43.0953 25.4838C42.9986 25.8706 42.6511 26.1418 42.2525 26.1418C41.8144 26.1418 41.4449 25.8156 41.3905 25.3809L40.9732 22.0426C40.8616 21.1499 41.5577 20.3613 42.4573 20.3613H42.4601C43.4334 20.3613 44.1474 21.2756 43.9113 22.2198Z" fill="#F0C087"/>
<path id="Vector_9" d="M22.3257 22.2198L23.1417 25.4838C23.2384 25.8706 23.5858 26.1418 23.9844 26.1418C24.4226 26.1418 24.7921 25.8156 24.8465 25.3809L25.2637 22.0426C25.3753 21.1499 24.6793 20.3613 23.7796 20.3613H23.7768C22.8037 20.3613 22.0897 21.2756 22.3257 22.2198Z" fill="#E6AF78"/>
<g id="Group">
<path id="Vector_10" d="M19.6366 42.7686L14.9545 38.5625C14.5621 39.0593 14.332 39.6844 14.332 40.3536V46.2838C14.332 47.5808 15.3833 48.6321 16.6803 48.6321H20.8351V45.4561C20.8351 44.4308 20.3993 43.4538 19.6366 42.7686Z" fill="#FFC36E"/>
<path id="Vector_11" d="M46.6004 42.7686L51.2825 38.5625C51.6749 39.0593 51.905 39.6844 51.905 40.3536V46.2838C51.905 47.5808 50.8537 48.6321 49.5567 48.6321H45.4019V45.4561C45.4019 44.4308 45.8376 43.4538 46.6004 42.7686Z" fill="#FFC36E"/>
<path id="Vector_12" d="M42.1874 35.7783C41.1219 39.796 37.4711 42.7614 33.1181 42.7614C28.765 42.7614 25.1143 39.796 24.0487 35.7783L21.7676 36.315L21.779 36.3802C23.1422 41.5201 27.8051 45.1097 33.1181 45.1097C38.431 45.1097 43.0939 41.5201 44.4572 36.3802L44.4635 36.3137L42.1874 35.7783Z" fill="#FFC36E"/>
</g>
</g>
<g id="Group 56">
<path id="Vector_13" d="M27.4602 55.3243L25.0673 54.9766L23.9971 52.8083C23.82 52.4493 23.3081 52.4493 23.1309 52.8083L22.4438 54.2005L26.2445 60.6616C26.3636 60.558 26.436 60.3998 26.4051 60.2191L25.9964 57.8359L27.7279 56.148C28.0145 55.8687 27.8563 55.3819 27.4602 55.3243Z" fill="#FFD782"/>
<path id="Vector_14" d="M37.0383 55.3243L34.6454 54.9766L33.5752 52.8083C33.3981 52.4493 32.8863 52.4493 32.7091 52.8083L32.022 54.2005L35.8226 60.6616C35.9417 60.558 36.0142 60.3998 35.9832 60.2191L35.5745 57.8359L37.3061 56.148C37.5926 55.8687 37.4345 55.3819 37.0383 55.3243Z" fill="#FFD782"/>
<path id="Vector_15" d="M46.616 55.3243L44.223 54.9766L43.1529 52.8083C42.9757 52.4493 42.4639 52.4493 42.2867 52.8083L41.5996 54.2005L45.4002 60.6616C45.5193 60.558 45.5918 60.3998 45.5609 60.2191L45.1521 57.8359L46.8837 56.148C47.1702 55.8687 47.012 55.3819 46.616 55.3243Z" fill="#FFD782"/>
<path id="Vector_16" d="M23.5636 59.6031L21.4232 60.7283C21.0689 60.9146 20.6548 60.6137 20.7225 60.2192L21.1312 57.8359L19.3998 56.1481C19.1132 55.8687 19.2713 55.3819 19.6675 55.3243L22.0604 54.9766L23.1305 52.8083C23.3076 52.4493 23.8195 52.4493 23.9967 52.8083L25.0668 54.9766L27.4597 55.3243C27.8558 55.3819 28.014 55.8687 27.7274 56.1481L25.9958 57.836L26.4045 60.2192C26.4722 60.6137 26.0581 60.9146 25.7038 60.7284L23.5636 59.6031Z" fill="#FFCD78"/>
<path id="Vector_17" d="M25.1626 55.6391C24.7838 55.5527 24.4857 55.2546 24.3994 54.8759C24.3929 54.8474 24.3552 54.8474 24.3486 54.8759C24.2623 55.2546 23.9641 55.5528 23.5853 55.6391C23.5568 55.6456 23.5568 55.6833 23.5853 55.6899C23.9641 55.7762 24.2623 56.0744 24.3486 56.4532C24.3551 56.4816 24.3928 56.4816 24.3994 56.4532C24.4857 56.0744 24.7838 55.7762 25.1626 55.6899C25.1911 55.6834 25.1911 55.6456 25.1626 55.6391Z" fill="white"/>
<path id="Vector_18" d="M33.1418 59.6032L31.0015 60.7284C30.6472 60.9147 30.2331 60.6138 30.3007 60.2192L30.7094 57.836L28.9779 56.1481C28.6913 55.8687 28.8494 55.3819 29.2456 55.3243L31.6385 54.9766L32.7086 52.8083C32.8857 52.4493 33.3976 52.4493 33.5748 52.8083L34.6449 54.9766L37.0378 55.3243C37.4339 55.3819 37.5921 55.8687 37.3055 56.1481L35.5739 57.836L35.9827 60.2192C36.0503 60.6137 35.6362 60.9146 35.2819 60.7284L33.1418 59.6032Z" fill="#FFCD78"/>
<path id="Vector_19" d="M34.7408 55.6391C34.362 55.5527 34.0638 55.2546 33.9775 54.8759C33.971 54.8474 33.9333 54.8474 33.9267 54.8759C33.8404 55.2546 33.5422 55.5528 33.1635 55.6391C33.135 55.6456 33.135 55.6833 33.1635 55.6899C33.5422 55.7762 33.8404 56.0744 33.9267 56.4532C33.9332 56.4816 33.9709 56.4816 33.9775 56.4532C34.0638 56.0744 34.362 55.7762 34.7408 55.6899C34.7692 55.6834 34.7692 55.6456 34.7408 55.6391Z" fill="white"/>
<path id="Vector_20" d="M42.7204 59.6032L40.5801 60.7284C40.2258 60.9147 39.8117 60.6138 39.8793 60.2192L40.2881 57.836L38.5565 56.1481C38.2699 55.8687 38.428 55.3819 38.8242 55.3243L41.2171 54.9766L42.2872 52.8083C42.4643 52.4493 42.9763 52.4493 43.1534 52.8083L44.2235 54.9766L46.6164 55.3243C47.0126 55.3819 47.1707 55.8687 46.8841 56.1481L45.1526 57.836L45.5613 60.2192C45.6289 60.6137 45.2148 60.9146 44.8605 60.7284L42.7204 59.6032Z" fill="#FFCD78"/>
<path id="Vector_21" d="M44.3189 55.6391C43.9401 55.5527 43.6419 55.2546 43.5556 54.8759C43.5491 54.8474 43.5114 54.8474 43.5048 54.8759C43.4185 55.2546 43.1204 55.5528 42.7416 55.6391C42.7131 55.6456 42.7131 55.6833 42.7416 55.6899C43.1204 55.7762 43.4185 56.0744 43.5048 56.4532C43.5113 56.4816 43.5491 56.4816 43.5556 56.4532C43.6419 56.0744 43.9401 55.7762 44.3189 55.6899C44.3474 55.6834 44.3474 55.6456 44.3189 55.6391Z" fill="white"/>
</g>
</g>
</g>
</svg>
