<svg width="66" height="66" viewBox="0 0 66 66" fill="none" xmlns="http://www.w3.org/2000/svg">
<g id="icon">
<path id="Vector" d="M33 0C14.7775 0 0 14.7775 0 33C0 51.2225 14.7775 66 33 66C51.2225 66 66 51.2225 66 33C66 14.7775 51.2225 0 33 0Z" fill="#263640"/>
<g id="XMLID_1484_">
<path id="XMLID_10_" d="M41.0199 17.6336L53.7301 15.2504C54.9097 15.0293 56 15.9342 56 17.1343V51.5675C56 52.4898 55.3431 53.2814 54.4366 53.4514L41.0199 55.9669C40.7865 56.0107 40.5469 56.0107 40.3135 55.9669L25.6866 53.2244C25.4532 53.1806 25.2136 53.1806 24.9802 53.2244L12.2699 55.6076C11.0903 55.8288 10 54.9239 10 53.7238V19.2906C10 18.3683 10.6569 17.5767 11.5634 17.4068L24.9801 14.8912C25.2135 14.8474 25.4531 14.8474 25.6865 14.8912L40.3134 17.6337C40.5469 17.6774 40.7864 17.6774 41.0199 17.6336Z" fill="#E6E6E7"/>
<path id="XMLID_1097_" d="M40.6668 17.6666V55.9999C40.5485 55.9999 40.4303 55.989 40.3136 55.9671L25.6867 53.2246C25.57 53.2027 25.4517 53.1918 25.3335 53.1918V14.8584C25.4517 14.8584 25.57 14.8693 25.6867 14.8912L40.3136 17.6337C40.4303 17.6556 40.5485 17.6666 40.6668 17.6666Z" fill="#BEBCB2"/>
<path id="XMLID_1095_" d="M41.726 21.401L52.1664 19.4434V49.9765L40.6664 52.1328L26.3925 49.4564C26.041 49.3905 25.6871 49.3576 25.3331 49.3576C24.9791 49.3576 24.625 49.3906 24.2734 49.4565L13.833 51.414V20.8809L25.333 18.7246L39.6067 21.401H39.6069C40.3099 21.5329 41.0228 21.5328 41.726 21.401Z" fill="#A5AA61"/>
<path id="XMLID_1094_" d="M40.6668 21.5008V52.1337L26.3929 49.4573C26.0414 49.3914 25.6875 49.3585 25.3335 49.3585V18.7256L39.6072 21.402H39.6074C39.9588 21.4679 40.3128 21.5008 40.6668 21.5008Z" fill="#8A9249"/>
<path id="XMLID_1093_" d="M40.5 33C39.581 33 38.7701 32.4174 38.5025 31.565L34.2858 18.1317C33.0157 14.0857 36.138 10 40.5 10C44.862 10 47.9843 14.0857 46.7142 18.1317L42.4975 31.565C42.2299 32.4174 41.419 33 40.5 33Z" fill="#D4632E"/>
<path id="XMLID_1092_" d="M46.7142 18.1317L42.4975 31.565C42.2299 32.4174 41.419 33 40.5 33V10C44.862 10 47.9843 14.0857 46.7142 18.1317Z" fill="#BC3C28"/>
<path id="XMLID_784_" d="M43.5 16.5C43.5 18.1569 42.1569 19.5 40.5 19.5C38.8431 19.5 37.5 18.1569 37.5 16.5C37.5 14.8431 38.8431 13.5 40.5 13.5C42.1569 13.5 43.5 14.8431 43.5 16.5Z" fill="#F2F2F2"/>
<path id="XMLID_532_" d="M40.5 19.5V13.5C42.1569 13.5 43.5 14.8431 43.5 16.5C43.5 18.1569 42.1569 19.5 40.5 19.5Z" fill="#E0E0E0"/>
</g>
</g>
</svg>
