<svg width="32" height="37" viewBox="0 0 32 37" fill="none" xmlns="http://www.w3.org/2000/svg">
<path id="Vector" fill-rule="evenodd" clip-rule="evenodd" d="M2.31453 29.0885L25.2439 15.8315V5.34314L16.0005 0L0.00100708 9.25028L0.000247955 14.4946L16.0005 5.24435L18.394 6.62836L0 17.2623L0.00100708 22.5056L20.7077 10.5347L20.7087 13.2103L0 25.1817L0.000247955 27.7502L2.31453 29.0885ZM27.4643 25.128L27.4637 25.1286L21.732 28.4413L16.0009 31.7555L13.6061 30.3713L20.5351 26.3661L27.4643 22.3609V25.128ZM27.4643 17.1158L4.53486 30.3723L15.9998 37L31.9995 27.7502C32 21.5837 32 15.4185 32 9.25016L27.4641 6.62772V17.1158H27.4643Z" fill="#263640"/>
</svg>
