<svg width="66" height="66" viewBox="0 0 66 66" fill="none" xmlns="http://www.w3.org/2000/svg">
<g id="icon">
<path id="Vector" d="M33 0C14.7775 0 0 14.7775 0 33C0 51.2225 14.7775 66 33 66C51.2225 66 66 51.2225 66 33C66 14.7775 51.2225 0 33 0Z" fill="#263640"/>
<mask id="mask0_204_1968" style="mask-type:alpha" maskUnits="userSpaceOnUse" x="0" y="0" width="66" height="66">
<path id="Vector_2" d="M33 0C14.7775 0 0 14.7775 0 33C0 51.2225 14.7775 66 33 66C51.2225 66 66 51.2225 66 33C66 14.7775 51.2225 0 33 0Z" fill="#263640"/>
</mask>
<g mask="url(#mask0_204_1968)">
<g id="buildings-building-svgrepo-com 1">
<g id="Group">
<path id="Vector_3" d="M21.1364 21.3486H15.8691V26.6159H21.1364V21.3486Z" fill="#A9D0D3"/>
<path id="Vector_4" d="M21.1354 31.8828H15.8682V37.15H21.1354V31.8828Z" fill="#A9D0D3"/>
<path id="Vector_5" d="M21.1354 52.9521H15.8682V58.2194H21.1354V52.9521Z" fill="#A9D0D3"/>
<path id="Vector_6" d="M31.6696 21.3486H26.4023V26.6159H31.6696V21.3486Z" fill="#A9D0D3"/>
<path id="Vector_7" d="M21.1354 42.418H15.8682V47.6852H21.1354V42.418Z" fill="#A9D0D3"/>
<path id="Vector_8" d="M39.5708 58.2197H31.6699V66.1206H39.5708V58.2197Z" fill="#A9D0D3"/>
</g>
<path id="Vector_9" d="M10.6011 66.1198V16.0811H36.9372V31.8827H27.7196C26.9936 31.8827 26.4028 32.4736 26.4028 33.1996V66.1198H10.6011ZM15.8683 58.2189H21.1355V52.9517H15.8683V58.2189ZM15.8683 47.6844H21.1355V42.4172H15.8683V47.6844ZM15.8683 37.15H21.1355V31.8827H15.8683V37.15ZM26.4028 26.6155H31.67V21.3483H26.4028V26.6155ZM15.8683 26.6155H21.1355V21.3483H15.8683V26.6155Z" fill="#79615B"/>
<g id="Group_2">
<path id="Vector_10" d="M50.1052 37.1504H31.6699V42.4176H50.1052V37.1504Z" fill="#A9D0D3"/>
<path id="Vector_11" d="M50.1052 47.6846H31.6699V52.9518H50.1052V47.6846Z" fill="#A9D0D3"/>
</g>
<path id="Vector_12" d="M50.1051 58.2188H44.8379V66.1196H50.1051V58.2188Z" fill="#FF877F"/>
<path id="Vector_13" d="M50.1054 66.1198V59.5358C50.1054 58.8098 49.5146 58.219 48.7886 58.219H46.1549C45.429 58.219 44.8381 58.8098 44.8381 59.5358V66.1198H39.5709V59.5358C39.5709 58.8098 38.9801 58.219 38.2541 58.219H32.9869C32.2609 58.219 31.6701 58.8098 31.6701 59.5358V66.1198H26.4028V31.8828H55.3726V66.1198H50.1054ZM32.9869 47.6845C32.2609 47.6845 31.6701 48.2753 31.6701 49.0013V51.6349C31.6701 52.3609 32.2609 52.9517 32.9869 52.9517H48.7886C49.5146 52.9517 50.1054 52.3609 50.1054 51.6349V49.0013C50.1054 48.2753 49.5146 47.6845 48.7886 47.6845H32.9869ZM32.9869 37.15C32.2609 37.15 31.6701 37.7409 31.6701 38.4669V41.1005C31.6701 41.8265 32.2609 42.4173 32.9869 42.4173H48.7886C49.5146 42.4173 50.1054 41.8265 50.1054 41.1005V38.4669C50.1054 37.7409 49.5146 37.15 48.7886 37.15H32.9869Z" fill="#9A8984"/>
<g id="Group_3">
<path id="Vector_14" d="M32.9866 54.269H48.7883C50.243 54.269 51.422 53.0901 51.422 51.6354V49.0018C51.422 47.5471 50.243 46.3682 48.7883 46.3682H32.9866C31.532 46.3682 30.353 47.5471 30.353 49.0018V51.6354C30.353 53.0901 31.532 54.269 32.9866 54.269ZM32.9866 49.0018H48.7883V51.6354H32.9866V49.0018Z" fill="#573A32"/>
<path id="Vector_15" d="M32.9866 43.7348H48.7883C50.243 43.7348 51.422 42.5559 51.422 41.1012V38.4676C51.422 37.0129 50.243 35.834 48.7883 35.834H32.9866C31.532 35.834 30.353 37.0129 30.353 38.4676V41.1012C30.353 42.5559 31.532 43.7348 32.9866 43.7348ZM32.9866 38.4676H48.7883V41.1012H32.9866V38.4676Z" fill="#573A32"/>
<path id="Vector_16" d="M21.1353 20.0312H15.8681C15.1403 20.0312 14.5513 20.6203 14.5513 21.3481V26.6153C14.5513 27.343 15.1403 27.9321 15.8681 27.9321H21.1353C21.863 27.9321 22.4521 27.343 22.4521 26.6153V21.3481C22.4521 20.6203 21.863 20.0312 21.1353 20.0312ZM19.8185 25.2985H17.1849V22.6649H19.8185V25.2985Z" fill="#573A32"/>
<path id="Vector_17" d="M32.9868 26.6153V21.3481C32.9868 20.6203 32.3977 20.0312 31.67 20.0312H26.4027C25.675 20.0312 25.0859 20.6203 25.0859 21.3481V26.6153C25.0859 27.343 25.675 27.9321 26.4027 27.9321H31.67C32.3977 27.9321 32.9868 27.343 32.9868 26.6153ZM30.3532 25.2985H27.7196V22.6649H30.3532V25.2985Z" fill="#573A32"/>
<path id="Vector_18" d="M21.1353 30.5664H15.8681C15.1403 30.5664 14.5513 31.1555 14.5513 31.8832V37.1504C14.5513 37.8782 15.1403 38.4673 15.8681 38.4673H21.1353C21.863 38.4673 22.4521 37.8782 22.4521 37.1504V31.8832C22.4521 31.1555 21.863 30.5664 21.1353 30.5664ZM19.8185 35.8336H17.1849V33.2H19.8185V35.8336Z" fill="#573A32"/>
<path id="Vector_19" d="M21.1353 41.1006H15.8681C15.1403 41.1006 14.5513 41.6897 14.5513 42.4174V47.6846C14.5513 48.4124 15.1403 49.0014 15.8681 49.0014H21.1353C21.863 49.0014 22.4521 48.4124 22.4521 47.6846V42.4174C22.4521 41.6897 21.863 41.1006 21.1353 41.1006ZM19.8185 46.3678H17.1849V43.7342H19.8185V46.3678Z" fill="#573A32"/>
<path id="Vector_20" d="M21.1353 51.6348H15.8681C15.1403 51.6348 14.5513 52.2238 14.5513 52.9516V58.2188C14.5513 58.9465 15.1403 59.5356 15.8681 59.5356H21.1353C21.863 59.5356 22.4521 58.9465 22.4521 58.2188V52.9516C22.4521 52.2238 21.863 51.6348 21.1353 51.6348ZM19.8185 56.902H17.1849V54.2684H19.8185V56.902Z" fill="#573A32"/>
<path id="Vector_21" d="M58.0059 64.8033H56.6891V33.2C56.6891 31.7453 55.5101 30.5663 54.0555 30.5663H38.2538V17.3983C38.2538 15.9436 37.0748 14.7646 35.6202 14.7646H11.9176C10.463 14.7646 9.28401 15.9436 9.28401 17.3983V64.8033H7.9672C7.23946 64.8033 6.65039 65.3924 6.65039 66.1201C6.65039 66.8479 7.23946 67.437 7.9672 67.437H58.0059C58.7336 67.437 59.3227 66.8479 59.3227 66.1201C59.3227 65.3924 58.7336 64.8033 58.0059 64.8033ZM25.0857 33.2V64.8033H11.9176V17.3983H35.6202V30.5663H27.7193C26.2647 30.5663 25.0857 31.7453 25.0857 33.2ZM38.2538 64.8033H32.9865V59.5361H38.2538V64.8033ZM48.7882 64.8033H46.1546V59.5361H48.7882V64.8033ZM54.0555 64.8033H51.4219V59.5361C51.4219 58.0814 50.2429 56.9025 48.7882 56.9025H46.1546C44.7 56.9025 43.521 58.0814 43.521 59.5361V64.8033H40.8874V59.5361C40.8874 58.0814 39.7084 56.9025 38.2538 56.9025H32.9865C31.5319 56.9025 30.3529 58.0814 30.3529 59.5361V64.8033H27.7193V33.2H54.0555V64.8033Z" fill="#573A32"/>
</g>
</g>
</g>
</g>
</svg>
