<svg width="44" height="37" viewBox="0 0 44 37" fill="none" xmlns="http://www.w3.org/2000/svg">
<path id="Vector" fill-rule="evenodd" clip-rule="evenodd" d="M19.3608 12.8969V18.6586V31.0792H28.7045C33.455 31.0792 36.2744 28.9121 36.2744 24.9487V24.8424C36.2744 21.0897 33.3506 18.6584 28.7569 18.6584H23.3901L27.4 12.8968L36.3791 0H44L34.134 14.0077C39.1977 15.4864 42.7995 19.1343 42.7995 25.2122V25.3185C42.7995 28.5416 41.703 31.2909 39.7718 33.2987C37.4223 35.6253 33.8207 36.9997 29.227 36.9997H12.941V9.18884H19.361V12.8969H19.3608ZM0 0.000160217H31.5439L27.4212 5.9203H6.42036V37H0V0.000160217Z" fill="#263640"/>
</svg>
