<svg width="67" height="66" viewBox="0 0 67 66" fill="none" xmlns="http://www.w3.org/2000/svg">
<g id="worker-svgrepo-com 1">
<path id="Vector" d="M33.0029 0C14.7804 0 0.00292969 14.7775 0.00292969 33C0.00292969 51.2225 14.7804 66 33.0029 66C51.2254 66 66.0029 51.2225 66.0029 33C66.0029 14.7775 51.2254 0 33.0029 0Z" fill="#263640"/>
<path id="Vector_2" d="M55.668 50.9168C54.5374 47.2856 44.8675 44.3594 32.9497 44.3594C21.0319 44.3594 11.4685 47.2856 10.3379 50.9168C9.99205 52.0474 9.60632 53.8697 9.23389 55.8914C15.2327 62.1296 23.6656 66.0002 33.0029 66.0002C42.3403 66.0002 50.7732 62.1163 56.772 55.8914C56.4128 53.8697 56.0271 52.0341 55.668 50.9168Z" fill="#1D1D1E"/>
<path id="Vector_3" d="M35.4634 59.9482V65.9071C39.0414 65.6411 42.4731 64.8031 45.6387 63.4863V59.9482H35.4634Z" fill="#D6E7F2"/>
<g id="Group">
<path id="Vector_4" d="M45.6392 59.8418H35.4639V60.6665H45.6392V59.8418Z" fill="#556877"/>
<path id="Vector_5" d="M44.6147 61.5439H40.4648C40.3451 61.5439 40.252 61.637 40.252 61.7568C40.252 61.8765 40.3451 61.9696 40.4648 61.9696H44.6147C44.7344 61.9696 44.8275 61.8765 44.8275 61.7568C44.8275 61.637 44.7344 61.5439 44.6147 61.5439Z" fill="#556877"/>
<path id="Vector_6" d="M44.6147 63.127H40.4648C40.3451 63.127 40.252 63.2201 40.252 63.3398C40.252 63.4595 40.3451 63.5526 40.4648 63.5526H44.6147C44.7344 63.5526 44.8275 63.4595 44.8275 63.3398C44.8275 63.2201 44.7344 63.127 44.6147 63.127Z" fill="#556877"/>
<path id="Vector_7" d="M40.4784 64.71C40.3587 64.71 40.2656 64.8031 40.2656 64.9228C40.2656 65.0425 40.3587 65.1356 40.4784 65.1356H40.5582C41.1036 65.0026 41.6489 64.8696 42.181 64.71H40.4784Z" fill="#556877"/>
<path id="Vector_8" d="M39.361 61.3311H36.2485V65.2815H39.361V61.3311Z" fill="#556877"/>
</g>
<g id="Group_2">
<path id="Vector_9" d="M32.9633 48.1764L27.4434 44.625C27.4434 44.625 30.4228 58.9902 33.0165 58.9902C35.6235 58.9902 38.5631 44.625 38.5631 44.625L32.9633 48.1764Z" fill="#D4D6D8"/>
<path id="Vector_10" d="M32.9767 42.1641L27.7095 42.869L27.9622 44.6115L32.9634 48.3491L38.0444 44.6115L38.2971 42.869L32.9767 42.1641Z" fill="#D4D6D8"/>
</g>
<path id="Vector_11" d="M38.1772 37.5225H27.8291C29.4385 42.3906 27.9621 44.6119 27.9621 44.6119L31.5401 45.4233H34.4663L38.0442 44.6119C38.0442 44.6119 36.5678 42.3906 38.1772 37.5225Z" fill="#E2A379"/>
<g id="Group_3">
<path id="Vector_12" d="M38.2969 42.8691L37.5254 47.724L40.6777 44.9308L38.2969 42.8691Z" fill="#F3FAFF"/>
<path id="Vector_13" d="M27.709 42.8691L25.3281 44.9308L28.4805 47.724L27.709 42.8691Z" fill="#F3FAFF"/>
<path id="Vector_14" d="M38.2968 42.8691L33.0029 45.423C33.0029 45.423 37.5253 47.724 37.5519 47.6974L40.6777 44.9308L38.2968 42.8691Z" fill="#F3FAFF"/>
<path id="Vector_15" d="M27.709 42.8691L25.3281 44.9308L28.4539 47.6974C28.4805 47.724 33.0029 45.423 33.0029 45.423L27.709 42.8691Z" fill="#F3FAFF"/>
</g>
<g id="Group_4">
<path id="Vector_16" d="M33.0029 45.4229L30.9014 46.4736L33.0029 49.8787L35.0912 46.4736L33.0029 45.4229Z" fill="#86B4D1"/>
<path id="Vector_17" d="M33.5345 48.1367H32.4571L30.9541 55.2262C31.6192 57.4342 32.3241 58.9771 33.0025 58.9771C33.6808 58.9771 34.3858 57.4475 35.0375 55.2661L33.5345 48.1367Z" fill="#86B4D1"/>
</g>
<g id="Group_5">
<path id="Vector_18" d="M33.0029 60.9856V58.9771C33.0029 58.9771 28.4806 47.7111 28.454 47.6978L26.1529 44.2129L24.4902 45.0642L25.5543 52.4197L27.7224 51.9275L26.1263 53.8828L33.0029 60.9856Z" fill="#4A4A54"/>
<path id="Vector_19" d="M41.5156 45.0642L39.853 44.2129L37.5519 47.6978C37.5253 47.7244 33.0029 58.9771 33.0029 58.9771V60.9856L39.8796 53.8828L38.2835 51.9275L40.4515 52.4197L41.5156 45.0642Z" fill="#4A4A54"/>
</g>
<path id="Vector_20" d="M33.0027 8.19336C26.525 8.19336 21.2578 11.0132 21.2578 23.3034C21.2578 27.4666 22.0825 30.7254 23.3195 33.2393C26.0329 38.7726 30.7282 40.7012 33.0027 40.7012C35.2772 40.7012 39.9724 38.7726 42.6859 33.2393C43.9229 30.7254 44.7475 27.4666 44.7475 23.3034C44.7475 11.0132 39.4803 8.19336 33.0027 8.19336Z" fill="#F4B382"/>
<path id="Vector_21" d="M34.6126 34.4496C34.1604 34.3831 33.0032 34.7955 33.0032 34.7955C33.0032 34.7955 31.846 34.3964 31.3805 34.4496C30.6489 34.5561 29.5449 35.0881 29.5449 35.2743C29.5449 35.5802 31.0878 36.4182 33.0032 36.4182C34.9186 36.4182 36.4615 35.5802 36.4615 35.2743C36.4615 35.2876 35.3575 34.5561 34.6126 34.4496Z" fill="#D89364"/>
<path id="Vector_22" d="M33.0032 35.4344C30.9548 35.4344 29.5449 35.2881 29.5449 35.2881C29.5449 35.594 31.0878 36.7778 33.0032 36.7778C34.9186 36.7778 36.4615 35.594 36.4615 35.2881C36.4615 35.2881 35.0516 35.4344 33.0032 35.4344Z" fill="#CE8757"/>
<path id="Vector_23" d="M21.4714 23.6758C20.3541 23.862 19.4895 24.3541 20.128 28.0518C20.7664 31.7495 21.5512 31.9225 22.6685 31.7362L21.4714 23.6758Z" fill="#F4B382"/>
<g id="Group_6">
<path id="Vector_24" d="M42.3001 12.3968C41.2893 9.09813 36.7802 7.99414 33.0027 7.99414C26.525 7.99414 21.2578 12.2239 21.2578 23.716L23.9579 23.2638C23.9579 22.918 36.86 15.4427 36.86 15.4427C38.1502 16.2009 40.1853 15.7088 40.1853 15.7088C40.1853 15.2033 42.0607 23.2638 42.0607 23.2638L44.7475 23.716C44.7475 16.4669 42.3001 12.3968 42.3001 12.3968Z" fill="#51250D"/>
<path id="Vector_25" d="M23.9578 23.2642L22.0159 18.7285C21.4572 20.1783 21.271 21.974 21.271 23.7164C21.271 23.7164 22.4415 23.4637 22.4415 24.0623L22.8139 27.7334L23.3327 27.4806C23.2795 24.4214 23.9578 23.2642 23.9578 23.2642Z" fill="#51250D"/>
</g>
<path id="Vector_26" d="M44.5482 23.6758L43.3511 31.7362C44.4684 31.9225 45.2531 31.7495 45.8916 28.0518C46.5167 24.3541 45.6655 23.8753 44.5482 23.6758Z" fill="#F4B382"/>
<path id="Vector_27" d="M44.0025 18.7275L42.0605 23.2632C42.0605 23.2632 42.7389 24.4337 42.7123 27.493L43.231 27.7457L43.6035 24.0746C43.6035 23.476 44.774 23.7287 44.774 23.7287C44.7607 21.9597 44.5744 20.1774 44.0025 18.7275Z" fill="#51250D"/>
<path id="Vector_28" d="M43.1117 10.1752C41.316 7.51496 36.3946 5.21387 33.0294 5.21387C29.6643 5.21387 24.7163 7.51496 22.9206 10.1752C21.2447 12.6492 20.8057 19.6721 21.4309 19.6721H44.6014C45.0137 19.6721 44.7876 12.6492 43.1117 10.1752Z" fill="#E5AA17"/>
<path id="Vector_29" d="M21.1787 18.8213L21.2984 21.6145C21.2984 21.6145 26.3395 22.1333 33.0034 22.1333C39.6672 22.1333 44.695 21.6145 44.695 21.6145L44.7216 18.8213H21.1787Z" fill="#EFC76C"/>
<path id="Vector_30" d="M33.0029 4.76172C30.7417 4.76172 28.9194 5.21396 28.9194 6.15833V9.17768C28.9194 10.1221 30.7417 20.7363 33.0029 20.7363C35.2508 20.7363 37.0863 10.1221 37.0863 9.17768V6.15833C37.0863 5.22726 35.2508 4.76172 33.0029 4.76172Z" fill="#E5AA17"/>
<g id="Group_7">
<path id="Vector_31" d="M28.9325 6.15744C28.9192 6.14414 28.9059 6.14414 28.9059 6.15744C28.7995 6.41016 28.7596 6.66288 28.7197 6.9156C28.6931 7.03531 28.6931 7.16832 28.6798 7.28803C28.6665 7.40774 28.6665 7.54075 28.6665 7.66046C28.6665 7.78017 28.6665 7.91318 28.6798 8.03289C28.6931 8.1526 28.6931 8.28561 28.7197 8.40532C28.7596 8.65804 28.8128 8.91076 28.9059 9.16348L28.9192 9.17678C28.9325 9.17678 28.9325 9.17678 28.9325 9.16348L28.9458 7.66046L28.9325 6.15744Z" fill="#C18D17"/>
<path id="Vector_32" d="M37.3256 7.2894C37.3123 7.16969 37.3123 7.03668 37.2857 6.91697C37.2458 6.66425 37.1926 6.41153 37.0995 6.15881L37.0862 6.14551C37.0729 6.14551 37.0729 6.14551 37.0729 6.15881L37.0596 7.66183L37.0729 9.16485C37.0729 9.16485 37.0729 9.17816 37.0862 9.17816C37.0995 9.17816 37.0995 9.17816 37.0995 9.16485C37.2059 8.91213 37.2458 8.65941 37.2857 8.40669C37.3123 8.28698 37.3123 8.15397 37.3256 8.03426C37.3389 7.91455 37.3389 7.78154 37.3389 7.66183C37.3389 7.54212 37.3389 7.42241 37.3256 7.2894Z" fill="#C18D17"/>
</g>
<path id="Vector_33" d="M35.4237 5.69277C35.4237 4.7484 34.3463 3.99023 33.0029 3.99023C31.6595 3.99023 30.5821 4.7617 30.5821 5.69277L28.9727 18.5549C28.9727 19.4993 31.6728 20.2575 33.0029 20.2575C34.333 20.2575 37.0331 19.486 37.0331 18.5549L35.4237 5.69277Z" fill="#F4B21E"/>
<path id="Vector_34" d="M44.2293 17.1846C42.5534 17.1181 37.765 18.1822 33.0032 18.1822C28.3079 18.1822 23.6392 17.1181 22.0165 17.1846C20.407 17.1846 19.875 20.3237 19.875 20.3237C19.875 20.3237 25.528 20.8956 33.0165 20.8956C40.505 20.8956 46.1313 20.3237 46.1313 20.3237C46.1313 20.3237 45.6259 17.1846 44.2293 17.1846Z" fill="#E5AA17"/>
<path id="Vector_35" d="M41.7418 17.7435C40.7575 17.81 39.7866 17.8632 38.8023 17.9031C36.847 17.9829 34.8785 18.0494 32.9232 18.0361C30.9679 18.0494 28.9994 17.9829 27.0441 17.9031C26.0598 17.8632 25.0889 17.81 24.1046 17.7435C23.1203 17.6903 22.1493 17.6105 21.165 17.5439C22.136 17.677 23.107 17.7834 24.0913 17.8898C25.0623 17.9829 26.0465 18.0627 27.0308 18.1292C28.9861 18.2622 30.9546 18.3154 32.9232 18.3287C34.8918 18.3154 36.847 18.2622 38.8156 18.1292C39.7999 18.0627 40.7708 17.9829 41.7551 17.8898C42.7261 17.7834 43.7104 17.6903 44.6814 17.5439C43.6971 17.6105 42.7261 17.6903 41.7418 17.7435Z" fill="#C18D17"/>
</g>
</svg>
